<mxfile host="app.diagrams.net" agent="Mozilla/5.0 (Windows NT 10.0; Win64; x64) AppleWebKit/537.36 (KHTML, like Gecko) Chrome/131.0.0.0 Safari/537.36 Edg/131.0.0.0" version="25.0.3">
  <diagram name="第 1 页" id="zGUjybOHjXsECZjbAu67">
    <mxGraphModel dx="1388" dy="691" grid="1" gridSize="10" guides="1" tooltips="1" connect="1" arrows="1" fold="1" page="1" pageScale="1" pageWidth="827" pageHeight="1169" math="0" shadow="0">
      <root>
        <mxCell id="0" />
        <mxCell id="1" parent="0" />
        <mxCell id="fipRC0NaJgUNX1WB6Vy9-1" value="" style="rounded=0;whiteSpace=wrap;html=1;" vertex="1" parent="1">
          <mxGeometry x="50" y="30" width="10" height="590" as="geometry" />
        </mxCell>
        <mxCell id="fipRC0NaJgUNX1WB6Vy9-2" value="dev" style="text;html=1;align=center;verticalAlign=middle;whiteSpace=wrap;rounded=0;" vertex="1" parent="1">
          <mxGeometry y="310" width="50" height="30" as="geometry" />
        </mxCell>
        <mxCell id="fipRC0NaJgUNX1WB6Vy9-3" value="" style="shape=flexArrow;endArrow=classic;html=1;rounded=0;width=3.3333333333333335;endSize=1.5583333333333336;" edge="1" parent="1">
          <mxGeometry width="50" height="50" relative="1" as="geometry">
            <mxPoint x="70" y="360" as="sourcePoint" />
            <mxPoint x="110" y="360" as="targetPoint" />
          </mxGeometry>
        </mxCell>
        <mxCell id="fipRC0NaJgUNX1WB6Vy9-4" value="v1.1.5.3" style="rounded=0;whiteSpace=wrap;html=1;" vertex="1" parent="1">
          <mxGeometry x="160" y="30" width="120" height="60" as="geometry" />
        </mxCell>
        <mxCell id="fipRC0NaJgUNX1WB6Vy9-5" value="v1.1.5.4" style="rounded=0;whiteSpace=wrap;html=1;" vertex="1" parent="1">
          <mxGeometry x="160" y="295" width="120" height="60" as="geometry" />
        </mxCell>
        <mxCell id="fipRC0NaJgUNX1WB6Vy9-6" value="v1.1.5.5" style="rounded=0;whiteSpace=wrap;html=1;" vertex="1" parent="1">
          <mxGeometry x="160" y="520" width="120" height="60" as="geometry" />
        </mxCell>
      </root>
    </mxGraphModel>
  </diagram>
</mxfile>
